<?xml version="1.0" encoding="UTF-8"?>
<!DOCTYPE svg PUBLIC "-//W3C//DTD SVG 1.1//EN" "http://www.w3.org/Graphics/SVG/1.1/DTD/svg11.dtd">
<!-- Creator: CorelDRAW -->
<svg xmlns="http://www.w3.org/2000/svg" xml:space="preserve" width="25mm" height="25mm" style="shape-rendering:geometricPrecision; text-rendering:geometricPrecision; image-rendering:optimizeQuality; fill-rule:evenodd; clip-rule:evenodd"
viewBox="0 0 0.928205 0.928205"
 xmlns:xlink="http://www.w3.org/1999/xlink">
 <defs>
  <style type="text/css">
   <![CDATA[
    .fil0 {fill:#1E262E}
    .fil1 {fill:#384048}
    .fil2 {fill:#f78}
   ]]>
  </style>
 </defs>
 <g id="Layer_x0020_1">
  <metadata id="CorelCorpID_0Corel-Layer"/>
  <rect class="fil0" width="0.928205" height="0.928205"/>
  <rect class="fil1" x="0.0566629" y="0.0566629" width="0.871541" height="0.871541"/>
  <path class="fil2" d="M0.782009 0.590212l0 0.116709c0,0.0366307 -0.0501565,0.0665597 -0.111333,0.0665597l-0.416682 0c-0.0611761,0 -0.0524473,-0.0299253 -0.0524473,-0.0665597l0 -0.0473422 0.373532 0c0.0210331,0 0.0382495,-0.0102919 0.0382495,-0.0228635l0 -0.0734916c0,-0.0125716 -0.0172126,-0.0228635 -0.0382495,-0.0228635l-0.199891 0 0 -0.113902 0 -0.00128092 0.199891 0c0.0210368,0 0.0382495,-0.0102919 0.0382495,-0.0228635l0 -0.0734916c0,-0.0125716 -0.0172163,-0.0228635 -0.0382495,-0.0228635l-0.373532 0 0 -0.0473422c0,-0.0366344 -0.0132622,-0.0665597 0.0479177,-0.0665597l0.421212 0c0.0611799,0 0.111333,0.029929 0.111333,0.0665597l0 0.114537c0.00151483,0.0304711 -0.00565091,0.0450922 -0.0241779,0.0528706 -0.0251135,0.0105444 -0.0333077,0.0277088 -0.0333077,0.0403212l0 0.0340206c0,0.0237323 0.0111867,0.0330181 0.0326543,0.0431355 0.0210108,0.00990209 0.0248313,0.0251395 0.0248313,0.046711z"/>
 </g>
</svg>
