<?xml version="1.0" encoding="UTF-8" standalone="no"?>
<!DOCTYPE svg PUBLIC "-//W3C//DTD SVG 1.1//EN" "http://www.w3.org/Graphics/SVG/1.1/DTD/svg11.dtd">
<svg width="100%" height="100%" viewBox="0 0 71 71" version="1.1" xmlns="http://www.w3.org/2000/svg" xmlns:xlink="http://www.w3.org/1999/xlink" xml:space="preserve" xmlns:serif="http://www.serif.com/" style="fill-rule:evenodd;clip-rule:evenodd;stroke-linejoin:round;stroke-miterlimit:2;">
    <g id="Layer_x0020_1">
        <rect x="0" y="0" width="70.866" height="70.866" style="fill:rgb(30,38,46);"/>
        <rect x="4.326" y="4.326" width="66.54" height="66.54" style="fill:rgb(56,64,72);"/>
        <g transform="matrix(0.0714899,0,0,0.0714899,9.00021,8.99996)">
            <path d="M772.252,649.071C754.34,637.734 720.611,638.199 692.845,641.122L625.945,574.194C632.785,568.521 638.022,560.927 640.239,550.67C640.239,550.67 654.59,517.556 618.789,475.294C618.789,475.294 609.232,434.318 620.949,390.828C631.412,352.333 634.508,292.23 615.453,236.116L692.845,158.753C720.64,161.686 754.397,162.199 772.315,150.785C776.87,148.448 781.199,145.405 785.145,141.507C798.622,128.015 802.913,108.802 797.974,91.614C795.642,83.723 791.399,76.211 785.145,69.928C774.043,58.821 759.163,53.969 744.61,55.342C745.954,40.832 741.044,25.895 729.995,14.822C723.683,8.534 716.2,4.286 708.252,1.992C691.126,-2.947 671.865,1.291 658.392,14.822C654.499,18.681 651.49,22.991 649.071,27.666C637.729,45.569 638.194,79.297 641.122,107.122L578.547,169.61C566.855,155.58 552.912,142.779 535.964,131.821C503.666,111.038 466.693,93.269 387.434,91.954C336.964,91.148 264.089,100.748 209.492,157.827L158.83,107.117C161.734,79.293 162.218,45.536 150.776,27.632C148.481,23.015 145.429,18.676 141.493,14.846C128.034,1.33 108.763,-2.923 91.633,2.016C83.684,4.31 76.201,8.563 69.89,14.846C58.841,25.924 53.993,40.827 55.332,55.284C40.88,53.969 25.919,58.85 14.812,69.923C8.587,76.235 4.248,83.723 2.011,91.686C-2.928,108.826 1.354,128.01 14.812,141.575C18.7,145.4 23.01,148.486 27.714,150.809C45.617,162.223 79.374,161.738 107.078,158.772L168.074,219.768C162.713,231.283 157.683,243.469 153.564,257.062C153.564,257.062 131.466,332.001 165.257,435.917C165.257,435.917 168.473,466.285 147.968,487.851C131.466,505.211 115.44,560.452 166.581,581.667L107.136,641.117C79.369,638.166 45.617,637.666 27.743,649.128C23.169,651.408 18.801,654.47 14.899,658.363C1.44,671.86 -2.87,691.155 2.069,708.257C4.392,716.172 8.644,723.717 14.899,730.029C25.976,741.078 40.88,745.926 55.394,744.582C54.05,759.082 58.961,774.014 70.01,785.116C76.321,791.341 83.804,795.613 91.796,797.888C108.878,802.856 128.126,798.531 141.656,785.116C145.515,781.257 148.568,776.875 150.891,772.224C162.334,754.311 161.791,720.583 158.883,692.85L251.067,600.636C257.379,612.064 264.627,634.921 268.486,681.1C268.486,681.1 271.001,714.065 299.641,708.862C299.641,708.862 314.343,707.988 316.944,645.615C316.944,645.615 333.427,630.011 332.534,667.247C332.534,667.247 328.166,710.585 355.904,707.988C355.904,707.988 371.47,717.511 377.547,669.873C377.547,669.873 377.547,628.288 392.306,643.863C392.306,643.863 396.616,704.513 413.963,710.585C413.963,710.585 439.065,718.389 443.424,685.453C443.424,685.453 443.366,632.641 457.247,642.169C457.247,642.169 462.45,645.648 463.271,677.649C463.271,677.649 462.45,711.468 484.078,709.745C484.078,709.745 506.579,709.745 512.661,657.811C512.661,657.811 508.864,599.556 538.09,589.827L641.146,692.912C638.194,720.679 637.753,754.464 649.181,772.353C651.437,776.971 654.562,781.353 658.449,785.183C671.951,798.714 691.213,802.952 708.31,798.013C716.229,795.733 723.775,791.471 730.024,785.183C741.131,774.105 745.983,759.202 744.639,744.644C759.106,745.988 774.043,741.083 785.173,730.033C791.432,723.722 795.671,716.239 798.008,708.343C802.913,691.16 798.651,671.956 785.173,658.425C781.194,654.446 776.927,651.408 772.252,649.071ZM263.854,521.699C254.005,519.74 245.015,516.054 237.009,511.322C211.143,496.097 196.182,468.8 201.692,441.384C209.026,405.549 248.643,383.383 290.306,391.816C307.695,395.383 322.354,403.859 333.345,414.908C348.791,430.455 356.624,451.204 352.444,472.102C345.134,508.024 305.502,530.233 263.854,521.699ZM413.19,569.457C410.132,571.621 406.758,572.908 403.192,572.908C396.76,572.908 391.048,568.991 387.252,562.852C383.436,568.986 377.753,572.908 371.321,572.908C367.726,572.908 364.294,571.621 361.323,569.457C354.925,564.695 350.615,555.633 350.615,545.141C350.615,542.16 351.023,539.328 351.652,536.612C355.218,515.157 387.252,488.153 387.252,488.153C387.252,488.153 419.252,515.157 422.818,536.612C423.495,539.299 423.841,542.189 423.841,545.141C423.898,555.633 419.482,564.69 413.19,569.457ZM551.15,499.428C540.221,510.126 525.754,518.281 508.802,521.703C494.805,524.598 481.155,523.691 468.762,520.297C444.297,513.457 425.064,495.981 420.188,472.165L420.159,471.666C414.927,444.835 429.336,418.004 454.444,402.721C462.656,397.725 472.126,393.952 482.384,391.874C524.031,383.383 563.634,405.553 570.94,441.413C575.264,462.719 567.081,483.824 551.15,499.428Z" style="fill:rgb(153,153,153);fill-rule:nonzero;"/>
        </g>
    </g>
</svg>
