<?xml version="1.0" encoding="UTF-8"?>
<!DOCTYPE svg PUBLIC "-//W3C//DTD SVG 1.1//EN" "http://www.w3.org/Graphics/SVG/1.1/DTD/svg11.dtd">
<!-- Creator: CorelDRAW -->
<svg xmlns="http://www.w3.org/2000/svg" xml:space="preserve" width="25mm" height="25mm" style="shape-rendering:geometricPrecision; text-rendering:geometricPrecision; image-rendering:optimizeQuality; fill-rule:evenodd; clip-rule:evenodd"
viewBox="0 0 1.71244 1.71244"
 xmlns:xlink="http://www.w3.org/1999/xlink">
 <defs>
  <style type="text/css">
   <![CDATA[
    .fil3 {fill:none}
    .fil7 {fill:black}
    .fil6 {fill:black}
    .fil0 {fill:gray}
    .fil2 {fill:#c6c6c6}
    .fil1 {fill:white}
    .fil5 {fill:black;fill-rule:nonzero}
    .fil4 {fill:url(#id0)}
   ]]>
  </style>
  <radialGradient id="id0" gradientUnits="userSpaceOnUse" cx="0.63052" cy="0.676989" r="0.678256" fx="0.63052" fy="0.676989">
   <stop offset="0" style="stop-color:white"/>
   <stop offset="0.301961" style="stop-color:#F3F516"/>
   <stop offset="0.588235" style="stop-color:#FCCE00"/>
   <stop offset="1" style="stop-color:#FF9E67"/>
  </radialGradient>
 </defs>
 <g id="Layer_x0020_1">
  <metadata id="CorelCorpID_0Corel-Layer"/>
  <g id="_280013496">
   <rect id="_280272344" class="fil0" width="1.71244" height="1.71244"/>
   <g>
    <polygon id="_280270160" class="fil1" points="0.0547364,0.0547364 1.65646,0.0547364 0.973241,0.735356 0.0547364,1.65646 "/>
    <polygon id="_280270088" class="fil0" points="1.66743,0.0450098 1.66743,1.66743 0.0450098,1.66743 "/>
    <rect id="_280270016" class="fil2" x="0.20264" y="0.20264" width="1.30591" height="1.30591"/>
   </g>
   <g>
    <circle id="_281586192" class="fil3" cx="0.856216" cy="0.856216" r="0.514439"/>
    <circle id="_281586120" class="fil4" cx="0.859534" cy="0.846258" r="0.497844"/>
    <path id="_281586048" class="fil5" d="M0.856213 0.310568l3.42488e-005 0 0 0.000123296c0.150708,6.84976e-006 0.287121,0.0610519 0.385792,0.159723 0.0986502,0.0986571 0.159688,0.235043 0.159702,0.385737l0.000123296 0 0 6.16478e-005 0 3.42488e-005 -0.000123296 0c-6.84976e-006,0.150708 -0.0610519,0.287121 -0.15973,0.385792 -0.0986502,0.0986502 -0.235036,0.159688 -0.38573,0.159702l0 0.000123296 -6.84976e-005 0 -2.7399e-005 0 0 -0.000123296c-0.150715,-6.84976e-006 -0.287121,-0.0610519 -0.385785,-0.15973 -0.0986502,-0.0986502 -0.159688,-0.235036 -0.159709,-0.38573l-0.000123296 0 0 -6.84976e-005 0 -2.7399e-005 0.000123296 0c6.84976e-006,-0.150715 0.0610519,-0.287121 0.159723,-0.385785 0.0986571,-0.0986502 0.235043,-0.159688 0.385737,-0.159709l0 -0.000123296 6.16478e-005 0zm3.42488e-005 0.0622917l0 0.000123296 -3.42488e-005 0 -6.16478e-005 0 0 -0.000123296c-0.133303,1.36995e-005 -0.254099,0.054161 -0.341611,0.141667 -0.0875194,0.0875125 -0.141674,0.208335 -0.14168,0.341659l0.000123296 0 0 2.7399e-005 0 6.84976e-005 -0.000123296 0c1.36995e-005,0.13331 0.054161,0.254105 0.141667,0.341611 0.0875125,0.0875194 0.208335,0.141674 0.341659,0.14168l0 -0.000123296 2.7399e-005 0 6.84976e-005 0 0 0.000123296c0.13331,-1.36995e-005 0.254099,-0.0541542 0.341611,-0.14166 0.0875194,-0.0875194 0.141674,-0.208335 0.14168,-0.341666l-0.000123296 0 0 -3.42488e-005 0 -6.16478e-005 0.000123296 0c-1.36995e-005,-0.133303 -0.0541542,-0.254099 -0.14166,-0.341611 -0.0875194,-0.0875194 -0.208335,-0.141674 -0.341666,-0.14168z"/>
    <path id="_281585976" class="fil6" d="M1.10922 1.11717c0.0124871,-0.0213027 0.0194054,-0.0445645 0.0194054,-0.0689154 0,-0.101753 -0.119987,-0.184252 -0.267942,-0.184252 -0.147948,0 -0.267942,0.0824985 -0.267942,0.184252 0,0.0232892 0.00632233,0.0455783 0.017782,0.0661139 0.0205219,-0.0950472 0.124227,-0.167388 0.24905,-0.167388 0.126049,0 0.230563,0.0737582 0.249646,0.170189z"/>
    <path id="_281585904" class="fil7" d="M0.739897 0.541309l0.0300293 0.0300293c0.00146585,0.00146585 0.00085622,0.00447289 -0.0013494,0.00667851l-0.0713745 0.0713745 0.0710183 0.0710183c0.00240427,0.00240427 0.00306184,0.00567845 0.00146585,0.00727444l-0.0295499 0.0295499c-0.00159599,0.00160284 -0.00487018,0.000945267 -0.00727444,-0.00146585l-0.0710183 -0.0710183 -0.0713813 0.0713813c-0.00220562,0.00220562 -0.00520582,0.00281525 -0.00667166,0.00134255l-0.0300362 -0.0300293c-0.00146585,-0.00146585 -0.00085622,-0.00446604 0.0013494,-0.00667166l0.0713745 -0.0713813 -0.0710114 -0.0710114c-0.00240427,-0.00241111 -0.00306184,-0.0056853 -0.00146585,-0.00728129l0.0295499 -0.0295499c0.00159599,-0.00159599 0.00487018,-0.000938417 0.00727444,0.00146585l0.0710183 0.0710183 0.0713745 -0.0713745c0.00220562,-0.00221247 0.00520582,-0.00281525 0.00667851,-0.0013494z"/>
    <path id="_281585832" class="fil7" d="M1.12502 0.541309l0.0300293 0.0300293c0.00146585,0.00146585 0.00086307,0.00447289 -0.0013494,0.00667851l-0.0713745 0.0713745 0.0710183 0.0710183c0.00240427,0.00240427 0.00306184,0.00567845 0.00146585,0.00727444l-0.0295499 0.0295499c-0.00159599,0.00160284 -0.00487018,0.000945267 -0.00727444,-0.00146585l-0.0710183 -0.0710183 -0.0713813 0.0713813c-0.00220562,0.00220562 -0.00520582,0.00281525 -0.00667166,0.00134255l-0.0300362 -0.0300293c-0.00146585,-0.00146585 -0.00085622,-0.00446604 0.0013494,-0.00667166l0.0713745 -0.0713813 -0.0710114 -0.0710114c-0.00240427,-0.00241111 -0.00306184,-0.0056853 -0.00146585,-0.00728129l0.0295499 -0.0295499c0.00159599,-0.00159599 0.00487018,-0.000938417 0.00727444,0.00146585l0.0710183 0.0710183 0.0713745 -0.0713745c0.00220562,-0.00221247 0.00521267,-0.00281525 0.00667851,-0.0013494z"/>
   </g>
  </g>
 </g>
</svg>
