<?xml version="1.0" encoding="UTF-8"?>
<!DOCTYPE svg PUBLIC "-//W3C//DTD SVG 1.1//EN" "http://www.w3.org/Graphics/SVG/1.1/DTD/svg11.dtd">
<!-- Creator: CorelDRAW -->
<svg xmlns="http://www.w3.org/2000/svg" xml:space="preserve" width="13.7575mm" height="26.3204mm" style="shape-rendering:geometricPrecision; text-rendering:geometricPrecision; image-rendering:optimizeQuality; fill-rule:evenodd; clip-rule:evenodd"
viewBox="0 0 2.35986 4.51481"
 xmlns:xlink="http://www.w3.org/1999/xlink">
 <defs>
  <style type="text/css">
   <![CDATA[
    .fil1 {fill:red}
    .fil0 {fill:black}
    .fil2 {fill:#600000}
   ]]>
  </style>
 </defs>
 <g id="Layer_x0020_1">
  <metadata id="CorelCorpID_0Corel-Layer"/>
  <g id="_176797824">
   <rect id="_176798400" class="fil0" width="2.35986" height="4.51481"/>
   <polygon id="_176798328" class="fil1" points="0.0820612,0.000463138 0.733182,0.638307 1.63459,0.638273 2.2778,0 "/>
   <polygon id="_176798256" class="fil1" points="0.0820612,4.51434 0.733182,3.8765 1.63459,3.87653 2.2778,4.51481 "/>
   <g>
    <polygon id="_176798184" class="fil1" points="2.3594,4.45316 1.72155,3.80204 1.72159,2.90063 2.35986,2.25742 "/>
    <polygon id="_176798112" class="fil1" points="2.3594,2.25737 1.72155,1.60625 1.72159,0.704845 2.35986,0.0616317 "/>
   </g>
   <g>
    <polygon id="_176798016" class="fil2" points="0.000463138,4.45316 0.638307,3.80204 0.638273,2.90063 0,2.25742 "/>
    <polygon id="_176797944" class="fil2" points="0.000463138,2.25737 0.638307,1.60625 0.638273,0.704845 0,0.0616317 "/>
   </g>
   <polygon id="_176797848" class="fil1" points="0.0820612,2.24181 0.733182,2.61224 1.63459,2.6122 2.27775,2.24159 2.2778,2.24159 2.27776,2.24157 2.2778,2.24155 2.27775,2.24155 1.63459,1.87094 0.733182,1.87091 0.0820612,2.24133 2.13141,2.24157 "/>
  </g>
 </g>
</svg>
