<?xml version="1.0" encoding="UTF-8"?>
<!DOCTYPE svg PUBLIC "-//W3C//DTD SVG 1.1//EN" "http://www.w3.org/Graphics/SVG/1.1/DTD/svg11.dtd">
<!-- Creator: CorelDRAW -->
<svg xmlns="http://www.w3.org/2000/svg" xml:space="preserve" width="25mm" height="25mm" style="shape-rendering:geometricPrecision; text-rendering:geometricPrecision; image-rendering:optimizeQuality; fill-rule:evenodd; clip-rule:evenodd"
viewBox="0 0 1.48975 1.48975"
 xmlns:xlink="http://www.w3.org/1999/xlink">
 <defs>
  <style type="text/css">
   <![CDATA[
    .fil2 {fill:black}
    .fil0 {fill:gray}
    .fil1 {fill:#c6c6c6}
   ]]>
  </style>
 </defs>
 <g id="Layer_x0020_1">
  <metadata id="CorelCorpID_0Corel-Layer"/>
  <rect class="fil0" width="1.48975" height="1.48975"/>
  <rect class="fil1" x="0.0909428" y="0.0909428" width="1.39881" height="1.39881"/>
  <path class="fil2" d="M0.316721 0.316602l0.928288 0 0 0.22913c0.00329533,0.0755781 -0.0147545,0.129817 -0.0424877,0.174366l-0.284519 0.523517c-0.0436259,0 -0.0872458,0 -0.130866,0 -0.0681472,-0.00123947 -0.0908331,-0.00288416 -0.0914529,-0.0621346 -0.00256833,-0.0471059 0.0102674,-0.0919236 0.0464922,-0.149881l0.186463 -0.324736c0.0189675,-0.0282576 0.0404855,-0.0672891 0.0380721,-0.121558l0 -0.0684213 -0.544588 0c-0.0520043,0.0012216 -0.105999,-0.0152908 -0.105582,-0.110742l0.00017877 -0.08954z"/>
 </g>
</svg>
