<?xml version="1.0" encoding="UTF-8"?>
<!DOCTYPE svg PUBLIC "-//W3C//DTD SVG 1.1//EN" "http://www.w3.org/Graphics/SVG/1.1/DTD/svg11.dtd">
<!-- Creator: CorelDRAW -->
<svg xmlns="http://www.w3.org/2000/svg" xml:space="preserve" width="25mm" height="25mm" style="shape-rendering:geometricPrecision; text-rendering:geometricPrecision; image-rendering:optimizeQuality; fill-rule:evenodd; clip-rule:evenodd"
viewBox="0 0 1.7449 1.7449"
 xmlns:xlink="http://www.w3.org/1999/xlink">
 <defs>
  <style type="text/css">
   <![CDATA[
    .fil0 {fill:#707070}
    .fil1 {fill:#c6c6c6}
   ]]>
  </style>
 </defs>
 <g id="Layer_x0020_1">
  <metadata id="CorelCorpID_0Corel-Layer"/>
  <rect class="fil0" width="1.7449" height="1.7449"/>
  <rect class="fil1" x="0.106519" y="0.106519" width="1.63838" height="1.63838"/>
  <path class="fil0" d="M0.776921 1.25047l0.305735 0c0.0395395,0 0.0594942,-0.0193475 0.0594942,-0.0429804l0 -0.135021c0,-0.023633 -0.0199896,-0.0399234 -0.0594942,-0.0398745l-0.305735 0.000453675c-0.0432457,-0.00205201 -0.0716387,0.00871055 -0.0675836,0.0484664l0 0.121264c-0.00183564,0.0340047 0.0207015,0.0498972 0.0675836,0.0476917zm0.694736 -0.124649l0 0.194689c0,0.11635 -0.0897508,0.149831 -0.209291,0.149831l-0.728364 0c-0.114989,0 -0.153537,-0.0691959 -0.153537,-0.138064l0 -0.00792884 -0.000809635 0 0.00217066 -0.237307c0.000467634,-0.0755892 0.0165277,-0.104834 0.102454,-0.101609 0.0348352,-0.00608622 0.0459677,-0.113426 0.0032525,-0.117753 -0.118297,-0.00579308 -0.107577,-0.0813194 -0.107549,-0.15931l-5.58369e-005 -0.202374c-0.00218462,-0.0619859 0.0447323,-0.123979 0.140751,-0.122841l0.626218 -0.00153551 0 -0.00053743 0.220995 0c0.0693145,0.00436226 0.103926,0.0433853 0.103878,0.117076l-0.000558369 0.244496c0.00111674,0.0893739 -0.0103228,0.121103 -0.0963326,0.1243 -0.0398745,0.000942247 -0.0360706,0.11961 -0.00291748,0.119191 0.104457,0.00471822 0.0993687,0.0813404 0.0994315,0.0878105 5.58369e-005,0.00542316 0.000265225,0.0163951 0.000265225,0.0518655zm-0.694736 -0.313287l0.305735 0c0.0395395,0 0.0594942,-0.0193475 0.0594942,-0.0429804l0 -0.135021c0,-0.023633 -0.0199896,-0.0399234 -0.0594942,-0.0398745l-0.305735 0.000453675c-0.0432457,-0.00205201 -0.0716387,0.00871055 -0.0675836,0.0484664l0 0.121264c-0.00183564,0.0340047 0.0207015,0.0498972 0.0675836,0.0476917z"/>
 </g>
</svg>
