<?xml version="1.0" encoding="UTF-8"?>
<!DOCTYPE svg PUBLIC "-//W3C//DTD SVG 1.1//EN" "http://www.w3.org/Graphics/SVG/1.1/DTD/svg11.dtd">
<!-- Creator: CorelDRAW -->
<svg xmlns="http://www.w3.org/2000/svg" xml:space="preserve" width="25mm" height="25mm" style="shape-rendering:geometricPrecision; text-rendering:geometricPrecision; image-rendering:optimizeQuality; fill-rule:evenodd; clip-rule:evenodd"
viewBox="0 0 1.08294 1.08294"
 xmlns:xlink="http://www.w3.org/1999/xlink">
 <defs>
  <style type="text/css">
   <![CDATA[
    .str0 {stroke:black;stroke-width:0.00330081}
    .fil4 {fill:none}
    .fil1 {fill:#CCCCCC}
    .fil8 {fill:white}
    .fil7 {fill:black}
    .fil0 {fill:gray}
    .fil3 {fill:#c6c6c6}
    .fil2 {fill:white}
    .fil6 {fill:black;fill-rule:nonzero}
    .fil5 {fill:url(#id0)}
   ]]>
  </style>
  <radialGradient id="id0" gradientUnits="userSpaceOnUse" cx="0.39874" cy="0.428127" r="0.428928" fx="0.39874" fy="0.428127">
   <stop offset="0" style="stop-color:white"/>
   <stop offset="0.301961" style="stop-color:#F3F516"/>
   <stop offset="0.588235" style="stop-color:#FCCE00"/>
   <stop offset="1" style="stop-color:#FF9E67"/>
  </radialGradient>
 </defs>
 <g id="Layer_x0020_1">
  <metadata id="CorelCorpID_0Corel-Layer"/>
  <rect class="fil0" width="1.08294" height="1.08294"/>
  <rect class="fil1" x="0.0350101" y="0.0350101" width="1.01292" height="1.01292"/>
  <polygon class="fil2" points="0.0350094,0.0350094 1.04793,0.0350094 0.61587,0.465432 0.0350094,1.04793 "/>
  <polygon class="fil0" points="1.05487,0.0288583 1.05487,1.05487 0.0288583,1.05487 "/>
  <rect class="fil3" x="0.128543" y="0.128543" width="0.825858" height="0.825858"/>
  <g id="_281587800">
   <circle id="_281588328" class="fil4" cx="0.541469" cy="0.541469" r="0.32533"/>
   <circle id="_281588256" class="fil5" cx="0.543568" cy="0.535172" r="0.314836"/>
   <path id="_281588184" class="fil6" d="M0.541468 0.196403l2.16589e-005 0 0 7.7972e-005c0.0953078,4.33178e-006 0.181575,0.0386091 0.243974,0.101008 0.0623862,0.0623906 0.100987,0.148641 0.100995,0.24394l7.7972e-005 0 0 3.8986e-005 0 2.16589e-005 -7.7972e-005 0c-4.33178e-006,0.0953078 -0.0386091,0.181575 -0.101013,0.243974 -0.0623862,0.0623862 -0.148636,0.100987 -0.243935,0.100995l0 7.7972e-005 -4.33178e-005 0 -1.73271e-005 0 0 -7.7972e-005c-0.0953121,-4.33178e-006 -0.181575,-0.0386091 -0.24397,-0.101013 -0.0623862,-0.0623862 -0.100987,-0.148636 -0.101,-0.243935l-7.7972e-005 0 0 -4.33178e-005 0 -1.73271e-005 7.7972e-005 0c4.33178e-006,-0.0953121 0.0386091,-0.181575 0.101008,-0.24397 0.0623906,-0.0623862 0.148641,-0.100987 0.24394,-0.101l0 -7.7972e-005 3.8986e-005 0zm2.16589e-005 0.0393932l0 7.7972e-005 -2.16589e-005 0 -3.8986e-005 0 0 -7.7972e-005c-0.0843007,8.66355e-006 -0.160692,0.0342514 -0.216034,0.0895898 -0.0553471,0.0553428 -0.0895941,0.131751 -0.0895985,0.216065l7.7972e-005 0 0 1.73271e-005 0 4.33178e-005 -7.7972e-005 0c8.66355e-006,0.084305 0.0342514,0.160696 0.0895898,0.216034 0.0553428,0.0553471 0.131751,0.0895941 0.216065,0.0895985l0 -7.7972e-005 1.73271e-005 0 4.33178e-005 0 0 7.7972e-005c0.084305,-8.66355e-006 0.160692,-0.034247 0.216034,-0.0895855 0.0553471,-0.0553471 0.0895941,-0.131751 0.0895985,-0.216069l-7.7972e-005 0 0 -2.16589e-005 0 -3.8986e-005 7.7972e-005 0c-8.66355e-006,-0.0843007 -0.034247,-0.160692 -0.0895855,-0.216034 -0.0553471,-0.0553471 -0.131751,-0.0895941 -0.216069,-0.0895985z"/>
   <g>
    <path id="_281588136" class="fil7 str0" d="M0.647964 0.392468c-0.0173098,0 -0.0335236,0.00163308 -0.0474719,0.00572661l-0.119635 0c-0.0139483,-0.00409353 -0.0301752,-0.00572661 -0.0474849,-0.00572661 -0.0520939,0 -0.0943418,0.014819 -0.0943418,0.0669173 0,0.0520983 0.0245005,0.0927303 0.0765945,0.0927303 0.0520983,0 0.112098,-0.0613943 0.112098,-0.0927303 0,-0.0313317 -0.00173704,-0.0249684 -0.00494689,-0.0326573l0.0357978 0c-0.00320985,0.0076889 -0.00495988,0.00132552 -0.00495988,0.0326573 0,0.0313361 0.0599994,0.0927303 0.112098,0.0927303 0.0520939,0 0.0765945,-0.0406321 0.0765945,-0.0927303 0,-0.0520983 -0.0422478,-0.0669173 -0.0943418,-0.0669173z"/>
    <path id="_281588064" class="fil7" d="M0.338671 0.43712c0,0 -0.0742163,0.0435603 -0.111322,0.108099 -0.0371103,0.0645348 -0.00645435,0.0580805 -0.00645435,0.0580805 0,0 0.0500147,-0.0855093 0.112938,-0.119392 0.0629234,-0.0338788 0.00483859,-0.0467875 0.00483859,-0.0467875z"/>
    <path id="_281587992" class="fil7" d="M0.744273 0.43712c0,0 0.0742163,0.0435603 0.111322,0.108099 0.0371103,0.0645348 0.00645435,0.0580805 0.00645435,0.0580805 0,0 -0.0500147,-0.0855093 -0.112938,-0.119392 -0.0629234,-0.0338788 -0.00483859,-0.0467875 -0.00483859,-0.0467875z"/>
    <path id="_281587920" class="fil7" d="M0.674185 0.62245c0.00679656,0.00795747 0.0105652,0.0166773 0.0105652,0.0258217 0,0.0374179 -0.0628584,0.067762 -0.140367,0.067762 -0.0775085,0 -0.140367,-0.0303441 -0.140367,-0.067762 0,-0.00914438 0.00376865,-0.0178642 0.0105652,-0.0258217 0.0210351,0.0246132 0.0712274,0.0419533 0.129802,0.0419533 0.0585743,0 0.108767,-0.0173401 0.129802,-0.0419533z"/>
   </g>
   <polygon id="_281587824" class="fil8" points="0.379455,0.361262 0.394404,0.407555 0.44305,0.407469 0.403639,0.435985 0.418762,0.482222 0.379455,0.453554 0.340157,0.482222 0.355279,0.435985 0.315864,0.407469 0.364515,0.407555 "/>
  </g>
 </g>
</svg>
