<?xml version="1.0" encoding="UTF-8" standalone="no"?>
<!DOCTYPE svg PUBLIC "-//W3C//DTD SVG 1.1//EN" "http://www.w3.org/Graphics/SVG/1.1/DTD/svg11.dtd">
<svg width="100%" height="100%" viewBox="0 0 71 71" version="1.1" xmlns="http://www.w3.org/2000/svg" xmlns:xlink="http://www.w3.org/1999/xlink" xml:space="preserve" xmlns:serif="http://www.serif.com/" style="fill-rule:evenodd;clip-rule:evenodd;">
    <g id="Layer_x0020_1">
        <rect x="0" y="0" width="70.866" height="70.866" style="fill:rgb(204,204,204);"/>
        <path d="M0,0L70.866,0L45.677,45.677L0,70.866L0,0Z" style="fill:white;"/>
        <path d="M70.866,0L70.866,70.866L0,70.866L70.866,0Z" style="fill:rgb(128,128,128);"/>
        <rect x="8.603" y="8.603" width="53.661" height="53.661" style="fill:rgb(198,198,198);"/>
        <rect x="36.937" y="32.562" width="4.137" height="14.907" style="stroke:black;stroke-width:0.22px;"/>
        <path d="M45.91,46.894L45.91,49.699C45.91,51.01 44.845,52.075 43.534,52.075L29.656,52.075C28.345,52.075 27.281,51.01 27.281,49.699L27.281,46.894C27.281,45.582 28.345,44.518 29.656,44.518L43.534,44.518C44.845,44.518 45.91,45.582 45.91,46.894Z"/>
        <path d="M54.271,51.905L54.271,55.909C54.271,57.299 53.143,58.428 51.753,58.428L21.64,58.428C20.25,58.428 19.121,57.299 19.121,55.909L19.121,51.905C19.121,50.515 20.25,49.386 21.64,49.386L51.753,49.386C53.143,49.386 54.271,50.515 54.271,51.905Z"/>
        <path d="M41.429,12.832L41.429,36.853C37.348,27.37 20.823,36.273 16.135,17.881C16.135,17.881 21.514,19.47 27.562,16.578C33.609,13.687 38.084,14.507 41.429,12.832Z" style="fill:url(#_Linear1);"/>
        <g transform="matrix(0.322576,-0.0319031,-0.0319031,0.322576,6.35089,6.35089)">
            <path d="M0,0L200,200" style="fill:none;stroke:rgb(255,0,0);stroke-width:24.08px;stroke-linejoin:round;stroke-miterlimit:1.5;"/>
        </g>
        <g transform="matrix(-0.0319031,-0.322576,0.322576,0.0319031,6.35089,64.4855)">
            <path d="M0,0L200,200" style="fill:none;stroke:rgb(255,0,0);stroke-width:24.08px;stroke-linejoin:round;stroke-miterlimit:1.5;"/>
        </g>
    </g>
    <defs>
        <linearGradient id="_Linear1" x1="0" y1="0" x2="1" y2="0" gradientUnits="userSpaceOnUse" gradientTransform="matrix(17.7743,3.17421,-3.17421,17.7743,19.8947,23.2554)"><stop offset="0" style="stop-color:rgb(231,0,48);stop-opacity:1"/><stop offset="0.39" style="stop-color:rgb(255,72,72);stop-opacity:1"/><stop offset="0.62" style="stop-color:rgb(255,47,47);stop-opacity:1"/><stop offset="0.79" style="stop-color:rgb(255,28,28);stop-opacity:1"/><stop offset="0.97" style="stop-color:rgb(192,21,21);stop-opacity:1"/><stop offset="1" style="stop-color:rgb(161,13,13);stop-opacity:1"/></linearGradient>
    </defs>
</svg>
